<mxfile host="app.diagrams.net" agent="Mozilla/5.0 (Windows NT 10.0; Win64; x64) AppleWebKit/537.36 (KHTML, like Gecko) Chrome/130.0.0.0 Safari/537.36 Edg/130.0.0.0" version="24.8.4">
  <diagram name="PÃ¡gina-1" id="eH7srlyltBvnrl8hBoIU">
    <mxGraphModel dx="1426" dy="755" grid="1" gridSize="10" guides="1" tooltips="1" connect="1" arrows="1" fold="1" page="1" pageScale="1" pageWidth="827" pageHeight="1169" math="0" shadow="0">
      <root>
        <mxCell id="0" />
        <mxCell id="1" parent="0" />
        <mxCell id="jPkv5CvXna5tT0flfEoe-1" value="Videojuegos XBOX" style="swimlane;childLayout=stackLayout;horizontal=1;startSize=50;horizontalStack=0;rounded=1;fontSize=14;fontStyle=0;strokeWidth=2;resizeParent=0;resizeLast=1;shadow=1;align=center;arcSize=4;whiteSpace=wrap;html=1;fillColor=#ffe6cc;strokeColor=#d79b00;labelBorderColor=default;gradientColor=none;perimeterSpacing=4;" vertex="1" parent="1">
          <mxGeometry x="310" y="730" width="160" height="150" as="geometry" />
        </mxCell>
        <mxCell id="jPkv5CvXna5tT0flfEoe-2" value="PK:&amp;nbsp;&lt;span style=&quot;white-space: pre;&quot;&gt;&#x9;&lt;/span&gt;+ID&lt;br&gt;&lt;span style=&quot;white-space: pre;&quot;&gt;&#x9;&lt;/span&gt;+Titulo&lt;br&gt;&lt;span style=&quot;white-space: pre;&quot;&gt;&#x9;&lt;/span&gt;+CIB&lt;div&gt;&lt;span style=&quot;white-space: pre;&quot;&gt;&#x9;&lt;/span&gt;+Loose&lt;br&gt;&lt;/div&gt;&lt;div&gt;&lt;span style=&quot;white-space: pre;&quot;&gt;&#x9;&lt;/span&gt;+New&lt;br&gt;&lt;/div&gt;&lt;div&gt;&lt;span style=&quot;white-space: pre;&quot;&gt;&#x9;&lt;/span&gt;+Plataforma&lt;br&gt;&lt;/div&gt;" style="align=left;strokeColor=none;fillColor=none;spacingLeft=4;fontSize=12;verticalAlign=top;resizable=0;rotatable=0;part=1;html=1;" vertex="1" parent="jPkv5CvXna5tT0flfEoe-1">
          <mxGeometry y="50" width="160" height="100" as="geometry" />
        </mxCell>
        <mxCell id="jPkv5CvXna5tT0flfEoe-32" style="edgeStyle=orthogonalEdgeStyle;rounded=0;orthogonalLoop=1;jettySize=auto;html=1;exitX=0;exitY=1;exitDx=0;exitDy=0;entryX=0.188;entryY=0.8;entryDx=0;entryDy=0;entryPerimeter=0;" edge="1" parent="jPkv5CvXna5tT0flfEoe-1" source="jPkv5CvXna5tT0flfEoe-2" target="jPkv5CvXna5tT0flfEoe-2">
          <mxGeometry relative="1" as="geometry" />
        </mxCell>
        <mxCell id="jPkv5CvXna5tT0flfEoe-3" value="www.pricecharting.com/es/" style="shape=datastore;whiteSpace=wrap;html=1;fillColor=#f8cecc;strokeColor=#b85450;" vertex="1" parent="1">
          <mxGeometry x="310" y="160" width="160" height="60" as="geometry" />
        </mxCell>
        <mxCell id="jPkv5CvXna5tT0flfEoe-4" value="" style="verticalLabelPosition=bottom;verticalAlign=top;html=1;strokeWidth=2;shape=mxgraph.arrows2.arrow;dy=0.6;dx=40;notch=0;rotation=90;" vertex="1" parent="1">
          <mxGeometry x="355" y="230" width="70" height="70" as="geometry" />
        </mxCell>
        <mxCell id="jPkv5CvXna5tT0flfEoe-5" value="https://www.pricecharting.com/es/category/video-games" style="shape=datastore;whiteSpace=wrap;html=1;fillColor=#dae8fc;strokeColor=#6c8ebf;" vertex="1" parent="1">
          <mxGeometry x="260" y="330" width="280" height="60" as="geometry" />
        </mxCell>
        <mxCell id="jPkv5CvXna5tT0flfEoe-6" value="" style="verticalLabelPosition=bottom;verticalAlign=top;html=1;strokeWidth=2;shape=mxgraph.arrows2.arrow;dy=0.6;dx=40;notch=0;rotation=90;fillColor=#60a917;fontColor=#ffffff;strokeColor=#2D7600;" vertex="1" parent="1">
          <mxGeometry x="344" y="410" width="70" height="70" as="geometry" />
        </mxCell>
        <mxCell id="jPkv5CvXna5tT0flfEoe-7" value="Enlaces a plataformas videojuegos" style="swimlane;childLayout=stackLayout;horizontal=1;startSize=50;horizontalStack=0;rounded=1;fontSize=14;fontStyle=0;strokeWidth=2;resizeParent=0;resizeLast=1;shadow=0;dashed=0;align=center;arcSize=4;whiteSpace=wrap;html=1;fillColor=#008a00;fontColor=#ffffff;strokeColor=#005700;" vertex="1" parent="1">
          <mxGeometry x="299" y="500" width="160" height="120" as="geometry" />
        </mxCell>
        <mxCell id="jPkv5CvXna5tT0flfEoe-8" value="&lt;span style=&quot;white-space: pre;&quot;&gt;&#x9;&lt;/span&gt;+ Enlaces" style="align=left;strokeColor=none;fillColor=none;spacingLeft=4;fontSize=12;verticalAlign=top;resizable=0;rotatable=0;part=1;html=1;" vertex="1" parent="jPkv5CvXna5tT0flfEoe-7">
          <mxGeometry y="50" width="160" height="70" as="geometry" />
        </mxCell>
        <mxCell id="jPkv5CvXna5tT0flfEoe-9" style="edgeStyle=orthogonalEdgeStyle;rounded=0;orthogonalLoop=1;jettySize=auto;html=1;exitX=0.5;exitY=1;exitDx=0;exitDy=0;" edge="1" parent="jPkv5CvXna5tT0flfEoe-7" source="jPkv5CvXna5tT0flfEoe-8" target="jPkv5CvXna5tT0flfEoe-8">
          <mxGeometry relative="1" as="geometry" />
        </mxCell>
        <mxCell id="jPkv5CvXna5tT0flfEoe-10" value="" style="verticalLabelPosition=bottom;verticalAlign=top;html=1;strokeWidth=2;shape=mxgraph.arrows2.arrow;dy=0.6;dx=40;notch=0;rotation=-225;fillColor=#6a00ff;fontColor=#ffffff;strokeColor=#3700CC;" vertex="1" parent="1">
          <mxGeometry x="200" y="600" width="70" height="70" as="geometry" />
        </mxCell>
        <mxCell id="jPkv5CvXna5tT0flfEoe-29" style="edgeStyle=orthogonalEdgeStyle;rounded=0;orthogonalLoop=1;jettySize=auto;html=1;exitX=1;exitY=0.25;exitDx=0;exitDy=0;" edge="1" parent="1" source="jPkv5CvXna5tT0flfEoe-13" target="jPkv5CvXna5tT0flfEoe-28">
          <mxGeometry relative="1" as="geometry" />
        </mxCell>
        <mxCell id="jPkv5CvXna5tT0flfEoe-13" value="Videojuegos XBOX one" style="swimlane;childLayout=stackLayout;horizontal=1;startSize=50;horizontalStack=0;rounded=1;fontSize=14;fontStyle=0;strokeWidth=2;resizeParent=0;resizeLast=1;shadow=1;align=center;arcSize=4;whiteSpace=wrap;html=1;fillColor=#e51400;strokeColor=#B20000;labelBorderColor=default;perimeterSpacing=4;fontColor=#ffffff;" vertex="1" parent="1">
          <mxGeometry x="30" y="670" width="160" height="150" as="geometry" />
        </mxCell>
        <mxCell id="jPkv5CvXna5tT0flfEoe-14" value="PK:&amp;nbsp;&lt;span style=&quot;white-space: pre;&quot;&gt;&#x9;&lt;/span&gt;+ID&lt;br&gt;&lt;span style=&quot;white-space: pre;&quot;&gt;&#x9;&lt;/span&gt;+Titulo&lt;br&gt;&lt;span style=&quot;white-space: pre;&quot;&gt;&#x9;&lt;/span&gt;+CIB&lt;div&gt;&lt;span style=&quot;white-space: pre;&quot;&gt;&#x9;&lt;/span&gt;+Loose&lt;br&gt;&lt;/div&gt;&lt;div&gt;&lt;span style=&quot;white-space: pre;&quot;&gt;&#x9;&lt;/span&gt;+New&lt;/div&gt;" style="align=left;strokeColor=none;fillColor=none;spacingLeft=4;fontSize=12;verticalAlign=top;resizable=0;rotatable=0;part=1;html=1;" vertex="1" parent="jPkv5CvXna5tT0flfEoe-13">
          <mxGeometry y="50" width="160" height="100" as="geometry" />
        </mxCell>
        <mxCell id="jPkv5CvXna5tT0flfEoe-15" value="Videojuegos XBOX Series X" style="swimlane;childLayout=stackLayout;horizontal=1;startSize=50;horizontalStack=0;rounded=1;fontSize=14;fontStyle=0;strokeWidth=2;resizeParent=0;resizeLast=1;shadow=1;align=center;arcSize=4;whiteSpace=wrap;html=1;fillColor=#d80073;strokeColor=#A50040;labelBorderColor=default;perimeterSpacing=4;fontColor=#ffffff;" vertex="1" parent="1">
          <mxGeometry x="570" y="670" width="160" height="150" as="geometry" />
        </mxCell>
        <mxCell id="jPkv5CvXna5tT0flfEoe-16" value="PK:&amp;nbsp;&lt;span style=&quot;white-space: pre;&quot;&gt;&#x9;&lt;/span&gt;+ID&lt;br&gt;&lt;span style=&quot;white-space: pre;&quot;&gt;&#x9;&lt;/span&gt;+Titulo&lt;br&gt;&lt;span style=&quot;white-space: pre;&quot;&gt;&#x9;&lt;/span&gt;+CIB&lt;div&gt;&lt;span style=&quot;white-space: pre;&quot;&gt;&#x9;&lt;/span&gt;+Loose&lt;br&gt;&lt;/div&gt;&lt;div&gt;&lt;span style=&quot;white-space: pre;&quot;&gt;&#x9;&lt;/span&gt;+New&lt;/div&gt;" style="align=left;strokeColor=none;fillColor=none;spacingLeft=4;fontSize=12;verticalAlign=top;resizable=0;rotatable=0;part=1;html=1;" vertex="1" parent="jPkv5CvXna5tT0flfEoe-15">
          <mxGeometry y="50" width="160" height="100" as="geometry" />
        </mxCell>
        <mxCell id="jPkv5CvXna5tT0flfEoe-24" value="" style="verticalLabelPosition=bottom;verticalAlign=top;html=1;strokeWidth=2;shape=mxgraph.arrows2.arrow;dy=0.6;dx=40;notch=0;rotation=50;fillColor=#fa6800;fontColor=#000000;strokeColor=#C73500;" vertex="1" parent="1">
          <mxGeometry x="480" y="620" width="70" height="70" as="geometry" />
        </mxCell>
        <mxCell id="jPkv5CvXna5tT0flfEoe-25" value="" style="verticalLabelPosition=bottom;verticalAlign=top;html=1;strokeWidth=2;shape=mxgraph.arrows2.arrow;dy=0.6;dx=40;notch=0;rotation=44;" vertex="1" parent="1">
          <mxGeometry x="169.74" y="800" width="60.26" height="70" as="geometry" />
        </mxCell>
        <mxCell id="jPkv5CvXna5tT0flfEoe-26" value="" style="verticalLabelPosition=bottom;verticalAlign=top;html=1;strokeWidth=2;shape=mxgraph.arrows2.arrow;dy=0.6;dx=40;notch=0;rotation=135;" vertex="1" parent="1">
          <mxGeometry x="510" y="800" width="70" height="70" as="geometry" />
        </mxCell>
        <mxCell id="jPkv5CvXna5tT0flfEoe-34" style="edgeStyle=orthogonalEdgeStyle;rounded=0;orthogonalLoop=1;jettySize=auto;html=1;exitX=0;exitY=1;exitDx=0;exitDy=0;" edge="1" parent="1" source="jPkv5CvXna5tT0flfEoe-27">
          <mxGeometry relative="1" as="geometry">
            <mxPoint x="340" y="870" as="targetPoint" />
          </mxGeometry>
        </mxCell>
        <mxCell id="jPkv5CvXna5tT0flfEoe-27" value="Plataforma = &#39;xbox series x&#39;" style="ellipse;whiteSpace=wrap;html=1;align=center;dashed=1;fillColor=#e3c800;fontColor=#000000;strokeColor=#B09500;" vertex="1" parent="1">
          <mxGeometry x="425" y="840" width="100" height="50" as="geometry" />
        </mxCell>
        <mxCell id="jPkv5CvXna5tT0flfEoe-28" value="Plataforma = &#39;xbox one&#39;" style="ellipse;whiteSpace=wrap;html=1;align=center;dashed=1;fillColor=#f0a30a;fontColor=#000000;strokeColor=#BD7000;" vertex="1" parent="1">
          <mxGeometry x="220" y="840" width="100" height="50" as="geometry" />
        </mxCell>
        <mxCell id="jPkv5CvXna5tT0flfEoe-30" style="edgeStyle=orthogonalEdgeStyle;rounded=0;orthogonalLoop=1;jettySize=auto;html=1;exitX=0;exitY=0.25;exitDx=0;exitDy=0;entryX=0.76;entryY=0;entryDx=0;entryDy=0;entryPerimeter=0;" edge="1" parent="1" source="jPkv5CvXna5tT0flfEoe-15" target="jPkv5CvXna5tT0flfEoe-27">
          <mxGeometry relative="1" as="geometry" />
        </mxCell>
      </root>
    </mxGraphModel>
  </diagram>
</mxfile>
